<?xml version="1.0" standalone="no"?>
<!DOCTYPE svg PUBLIC "-//W3C//DTD SVG 20010904//EN"
 "http://www.w3.org/TR/2001/REC-SVG-20010904/DTD/svg10.dtd">
<svg version="1.0" xmlns="http://www.w3.org/2000/svg"
 width="19.000000pt" height="16.000000pt" viewBox="0 0 19.000000 16.000000"
 preserveAspectRatio="xMidYMid meet">

<g transform="translate(0.000000,16.000000) scale(0.100000,-0.100000)"
fill="#000000" stroke="none">
<path d="M16 144 c-9 -24 -7 -31 4 -14 7 12 10 8 10 -15 0 -23 -3 -27 -10 -15
-6 9 -10 10 -10 3 0 -6 5 -15 10 -18 6 -3 10 -18 10 -33 0 -21 -2 -24 -10 -12
-8 12 -10 9 -10 -12 0 -26 3 -28 38 -28 42 0 78 28 69 52 -3 8 -6 5 -6 -6 -1
-11 -4 -16 -8 -13 -3 4 -12 -1 -19 -11 -12 -15 -13 -14 -14 11 0 20 4 26 13
21 7 -5 6 -1 -3 10 -13 16 -12 18 5 16 36 -4 50 2 20 9 -24 5 -31 12 -33 36
l-2 30 20 -24 c18 -21 20 -21 20 -4 0 14 8 19 32 21 62 5 39 11 -40 11 -63 0
-82 -4 -86 -15z m44 -14 c0 -11 -4 -20 -10 -20 -5 0 -10 9 -10 20 0 11 5 20
10 20 6 0 10 -9 10 -20z m0 -40 c0 -5 -4 -10 -10 -10 -5 0 -10 5 -10 10 0 6 5
10 10 10 6 0 10 -4 10 -10z m0 -50 c0 -17 -4 -30 -10 -30 -5 0 -10 13 -10 30
0 17 5 30 10 30 6 0 10 -13 10 -30z"/>
<path d="M153 80 c0 -36 2 -50 4 -32 2 17 2 47 0 65 -2 17 -4 3 -4 -33z"/>
<path d="M114 8 c-3 -4 11 -8 30 -8 20 0 36 2 36 4 0 8 -61 12 -66 4z"/>
</g>
</svg>
